# xmcd
# 
# Track frame offsets:
#     150
#     22961
#     45976
#     66396
#     88173
#     107906
#     123520
#     167529
#     175588
#     193817
#     218199
#     237198
#     270550
#     297180
# 
# Disc length: 4355
# 
# Revision: 1
# Processed by: cddbd v1.5.2PL0 Copyright (c) Steve Scherf et al.
# Submitted via: fre:ac v1.0.31
# 
DISCID=c411010e
DTITLE=The Rolling Stones - From The Vault - Hampton Coliseum Disc 1
DYEAR=2014
DGENRE=Rock/Pop
TTITLE0=Under My Thumb [live]
TTITLE1=When The Whip Comes Down [live]
TTITLE2=Let's Spend The Night Together [live]
TTITLE3=Shattered [live]
TTITLE4=Neighbours [live]
TTITLE5=Black Limousine [live]
TTITLE6=Just My Imagination [live]
TTITLE7=Twenty Flight Rock [live]
TTITLE8=Going To A Go-Go [live]
TTITLE9=Let Me Go [live]
TTITLE10=Time Is On My Side [live]
TTITLE11=Beast Of Burden [live]
TTITLE12=Waiting On A Friend [live]
TTITLE13=Let It Bleed [live]
EXTD=
EXTT0=
EXTT1=
EXTT2=
EXTT3=
EXTT4=
EXTT5=
EXTT6=
EXTT7=
EXTT8=
EXTT9=
EXTT10=
EXTT11=
EXTT12=
EXTT13=
PLAYORDER=
